Coordinates
version=1
nRows=16
nColumns=40
inDegrees=yes

Units are S.I. units (second, meters, Newtons, ...)
If the header above contains a line with 'inDegrees', this indicates whether rotational values are in degrees (yes) or radians (no).

endheader
time	pelvis_tilt	pelvis_list	pelvis_rotation	pelvis_tx	pelvis_ty	pelvis_tz	hip_flexion_r	hip_adduction_r	hip_rotation_r	knee_angle_r	knee_angle_r_beta	ankle_angle_r	subtalar_angle_r	mtp_angle_r	hip_flexion_l	hip_adduction_l	hip_rotation_l	knee_angle_l	knee_angle_l_beta	ankle_angle_l	subtalar_angle_l	mtp_angle_l	lumbar_extension	lumbar_bending	lumbar_rotation	arm_flex_r	arm_add_r	arm_rot_r	elbow_flex_r	pro_sup_r	wrist_flex_r	wrist_dev_r	arm_flex_l	arm_add_l	arm_rot_l	elbow_flex_l	pro_sup_l	wrist_flex_l	wrist_dev_l
      0.62800000	     14.80287905	     -4.20201747	     -2.05623114	      1.01141123	      0.93139471	     -0.32184344	    -29.68189171	      3.44257618	     -0.00362730	     27.78493709	      0.48493863	    -14.47926417	      0.00000000	      0.00000000	     17.85586824	     -4.09892045	     -0.17470655	     22.68625441	      0.39594983	    -16.25697100	      0.00000000	      0.00000000	    -29.36044513	      1.00923324	      5.07439230	      9.61634161	    -16.99777690	     15.50926096	     42.26333182	     74.83281969	      0.00000000	      0.00000000	      0.28133690	    -19.77846367	     16.11202696	     43.06903705	     78.18569857	      0.00000000	      0.00000000
      0.63200000	     14.83173975	     -3.95840493	     -1.94538782	      1.01824995	      0.93126321	     -0.32281761	    -29.67499382	      3.16622676	      0.06288709	     28.29844708	      0.49390107	    -15.50765860	      0.00000000	      0.00000000	     17.92736849	     -3.69102883	      0.15674360	     23.55305000	      0.41107827	    -16.50178653	      0.00000000	      0.00000000	    -29.31358325	      0.78214795	      4.86852244	      9.35206639	    -16.88961487	     15.32330813	     42.13450062	     74.89105499	      0.00000000	      0.00000000	      0.26038261	    -19.73647863	     16.04196405	     42.93282927	     78.17881101	      0.00000000	      0.00000000
      0.63600000	     14.89688336	     -3.75638036	     -1.79580701	      1.02510077	      0.93120430	     -0.32370775	    -29.66509493	      2.90749460	     -0.15486382	     28.83517322	      0.50326871	    -16.81344631	      0.00000000	      0.00000000	     17.97029451	     -3.33849525	      0.41926601	     24.47653019	      0.42719604	    -16.68747101	      0.00000000	      0.00000000	    -29.28203457	      0.61182926	      4.60806317	      9.15301871	    -16.73184241	     15.09689198	     41.92214684	     74.96377282	      0.00000000	      0.00000000	      0.24354492	    -19.71056433	     16.02044714	     42.76255669	     78.16526834	      0.00000000	      0.00000000
      0.64000000	     14.94861580	     -3.52949820	     -1.55838998	      1.03223903	      0.93116798	     -0.32452616	    -29.65909510	      2.64670274	     -0.69679884	     29.27297667	      0.51090982	    -18.55193635	      0.00000000	      0.00000000	     18.00953215	     -2.96564244	      0.62316630	     25.39648431	      0.44325227	    -16.67503992	      0.00000000	      0.00000000	    -29.22579791	      0.42382532	      4.27942760	      8.84677433	    -16.51348421	     14.72382887	     41.79794101	     75.12344091	      0.00000000	      0.00000000	     -0.09225288	    -19.85492986	     15.84466021	     43.18735296	     78.19804038	      0.00000000	      0.00000000
      0.64400000	     14.98150191	     -3.29957393	     -1.25817162	      1.03931664	      0.93128844	     -0.32559456	    -29.65090695	      2.42084789	     -1.13686344	     29.65641311	      0.51760205	    -20.14115235	      0.00000000	      0.00000000	     17.96408399	     -2.49063549	      1.17814598	     26.11587820	      0.45580806	    -16.70698671	      0.00000000	      0.00000000	    -29.11276168	      0.30242657	      3.86546126	      8.62126998	    -16.32531842	     14.55555442	     41.51343844	     75.45775326	      0.00000000	      0.00000000	      0.09094608	    -19.75615085	     16.06962813	     42.54010459	     78.25158258	      0.00000000	      0.00000000
      0.64800000	     15.10964722	     -3.12543519	     -1.19893348	      1.04596765	      0.93160937	     -0.32600015	    -29.62869639	      2.21205025	     -1.07302280	     30.27614281	      0.52841838	    -21.27002158	      0.00000000	      0.00000000	     17.77564192	     -2.18811722	      1.52439541	     26.74025525	      0.46670550	    -16.90683068	      0.00000000	      0.00000000	    -29.19613474	      0.07007543	      3.71781503	      8.43323329	    -16.13362372	     14.32424580	     41.32097445	     75.50057171	      0.00000000	      0.00000000	     -0.09075912	    -19.89789025	     15.94185413	     42.82397413	     78.27414987	      0.00000000	      0.00000000
      0.65200000	     15.15525118	     -2.79318740	     -0.72939370	      1.05340336	      0.93182524	     -0.32730236	    -29.63461022	      1.92099294	     -1.95827648	     30.58450206	      0.53380026	    -23.41463523	      0.00000000	      0.00000000	     17.64711938	     -1.59647056	      1.96676693	     27.33151689	      0.47702496	    -16.84716293	      0.00000000	      0.00000000	    -29.10634416	     -0.07279975	      3.06084457	      8.15100772	    -15.86980207	     14.03412834	     41.06993905	     75.80413425	      0.00000000	      0.00000000	     -0.33747948	    -19.97638833	     15.84249102	     42.93792170	     78.30958431	      0.00000000	      0.00000000
      0.65600000	     15.31197505	     -2.66542460	     -0.55086258	      1.06026323	      0.93239910	     -0.32781422	    -29.61892836	      1.75043000	     -2.27685264	     31.15730383	      0.54379754	    -24.88806216	      0.00000000	      0.00000000	     17.34349782	     -1.36022845	      2.27649722	     27.84780643	      0.48603591	    -16.89552808	      0.00000000	      0.00000000	    -29.18916819	     -0.18136420	      2.77893756	      7.98706887	    -15.64384385	     13.84753251	     40.78049940	     75.94745060	      0.00000000	      0.00000000	     -0.41391233	    -20.03005538	     15.76419049	     42.89747146	     78.30103264	      0.00000000	      0.00000000
      0.66000000	     15.46216832	     -2.48408366	     -0.30710976	      1.06675390	      0.93299811	     -0.32831176	    -29.60511591	      1.70165066	     -2.11870595	     31.71741665	      0.55357335	    -25.88210862	      0.00000000	      0.00000000	     17.06210919	     -1.05560080	      2.59077510	     28.33233496	      0.49449253	    -16.88903623	      0.00000000	      0.00000000	    -29.31219441	     -0.33242162	      2.41108233	      7.86810746	    -15.40672559	     13.70611231	     40.58074160	     76.00672806	      0.00000000	      0.00000000	     -0.39318964	    -20.14299951	     15.73195778	     42.80198325	     78.30793575	      0.00000000	      0.00000000
      0.66400000	     15.55932880	     -2.28974730	      0.16861062	      1.07403429	      0.93354956	     -0.32892506	    -29.60486834	      1.61429638	     -2.77920249	     32.07842855	      0.55987420	    -27.73991031	      0.00000000	      0.00000000	     16.81069719	     -0.70542436	      2.99992855	     28.90056660	      0.50441004	    -16.36247906	      0.00000000	      0.00000000	    -29.27516850	     -0.39826886	      1.88403766	      7.58839281	    -15.07975882	     13.38856180	     40.23522720	     76.51383292	      0.00000000	      0.00000000	     -0.50870267	    -20.31516211	     15.81316609	     42.86596094	     78.28737036	      0.00000000	      0.00000000
      0.66800000	     15.66530934	     -2.12738061	      0.14495173	      1.08124244	      0.93425824	     -0.32910573	    -29.56939991	      1.43526985	     -2.44504497	     32.63576319	      0.56960152	    -28.54300985	      0.00000000	      0.00000000	     16.44367516	     -0.53225111	      3.00627872	     29.34610858	      0.51218622	    -16.12501734	      0.00000000	      0.00000000	    -29.23875717	     -0.62484993	      1.72493143	      7.32297706	    -14.87945257	     13.29433685	     40.08582601	     76.55910245	      0.00000000	      0.00000000	     -0.62970686	    -20.38069384	     15.80190183	     42.74404987	     78.28347096	      0.00000000	      0.00000000
      0.67200000	     15.86262328	     -1.97907047	      0.15838449	      1.08836662	      0.93500733	     -0.32970256	    -29.56775938	      1.17614997	     -2.46100310	     33.19441022	      0.57935175	    -29.81036937	      0.00000000	      0.00000000	     15.97186116	     -0.33452012	      2.95883527	     29.84721483	      0.52093217	    -15.36161176	      0.00000000	      0.00000000	    -29.32171906	     -0.79673424	      1.62928473	      7.06187384	    -14.74046011	     13.12870273	     39.82615647	     76.67694840	      0.00000000	      0.00000000	     -0.72136131	    -20.44823468	     15.84213372	     42.80873522	     78.29537317	      0.00000000	      0.00000000
      0.67600000	     16.02664347	     -1.80280318	      0.45440598	      1.09484796	      0.93585991	     -0.33014227	    -29.53577674	      1.20391048	     -2.19221760	     33.77156793	      0.58942505	    -30.48539091	      0.00000000	      0.00000000	     15.58100577	     -0.05764550	      3.16351695	     30.22124464	      0.52746022	    -15.18291751	      0.00000000	      0.00000000	    -29.44801158	     -0.89896772	      1.21614406	      6.89114438	    -14.51713130	     13.05186033	     39.71857564	     76.72174311	      0.00000000	      0.00000000	     -0.66882220	    -20.56962209	     15.92759326	     42.68835583	     78.29132063	      0.00000000	      0.00000000
      0.68000000	     16.21020249	     -1.54979675	      0.68644813	      1.10194620	      0.93663166	     -0.33121095	    -29.50420425	      0.94763789	     -2.47194769	     34.38908116	      0.60020269	    -31.60512064	      0.00000000	      0.00000000	     15.11506480	      0.35437808	      3.35228929	     30.68601613	      0.53557202	    -14.52176875	      0.00000000	      0.00000000	    -29.48945536	     -1.05152606	      0.89469494	      6.66036262	    -14.39988554	     12.94352333	     39.36676589	     76.82425185	      0.00000000	      0.00000000	     -0.48067431	    -20.54737204	     16.17494115	     42.28282036	     78.27622538	      0.00000000	      0.00000000
      0.68400000	     16.42535242	     -1.37583117	      0.86295506	      1.10847681	      0.93755931	     -0.33143961	    -29.46507866	      0.87807226	     -2.31952936	     35.02490238	      0.61129987	    -32.28632741	      0.00000000	      0.00000000	     14.57592318	      0.60200785	      3.52768035	     30.97119192	      0.54054927	    -14.15271777	      0.00000000	      0.00000000	    -29.64349618	     -1.21396770	      0.63823474	      6.46229888	    -14.19803135	     12.82460846	     39.24755233	     76.86323034	      0.00000000	      0.00000000	     -0.59920660	    -20.82176805	     16.31315389	     42.60865187	     78.29286729	      0.00000000	      0.00000000
      0.68800000	     16.63330529	     -1.17235010	      1.03959852	      1.11535588	      0.93851546	     -0.33199995	    -29.43027908	      0.77613939	     -2.13483959	     35.68017334	      0.62273650	    -32.91441877	      0.00000000	      0.00000000	     14.01722945	      0.87521706	      3.53837953	     31.24967083	      0.54540965	    -13.76613313	      0.00000000	      0.00000000	    -29.76297533	     -1.35965565	      0.26162528	      6.27053349	    -14.00337496	     12.75692782	     39.08279468	     76.90883779	      0.00000000	      0.00000000	     -0.52285575	    -20.86739053	     16.41690204	     42.32281538	     78.27643450	      0.00000000	      0.00000000
